HIERARCHY
ROOT RootJoint
{
    OFFSET   0.000000   0.000000   0.000000
    CHANNELS 6 Xposition Yposition Zposition Xrotation Yrotation Zrotation
    JOINT pelvis_lowerback
    {
        OFFSET   0.000000   0.093605   0.000000
        CHANNELS 3 Xrotation Yrotation Zrotation
        JOINT lowerback_torso
        {
            OFFSET   0.000000   0.100000   0.000000
            CHANNELS 3 Xrotation Yrotation Zrotation
            JOINT torso_head
            {
                OFFSET   0.000000   0.282350   0.000000
                CHANNELS 3 Xrotation Yrotation Zrotation
                End Site
                {
                    OFFSET   0.000000   0.192650   0.000000
                }
            }
            JOINT rTorso_Clavicle
            {
                OFFSET  -0.001000   0.157500   0.000000
                CHANNELS 3 Xrotation Yrotation Zrotation
                JOINT rShoulder
                {
                    OFFSET  -0.117647   0.000000   0.000000
                    CHANNELS 3 Xrotation Yrotation Zrotation
                    JOINT rElbow
                    {
                        OFFSET  -0.245000   0.000000   0.000000
                        CHANNELS 3 Xrotation Yrotation Zrotation
                        JOINT rWrist
                        {
                            OFFSET  -0.240000   0.000000   0.000000
                            CHANNELS 3 Xrotation Yrotation Zrotation
                            End Site
                            {
                                OFFSET  -0.116353  -0.002500   0.000000
                            }
                        }
                    }
                }
            }
            JOINT lTorso_Clavicle
            {
                OFFSET   0.001000   0.157500   0.000000
                CHANNELS 3 Xrotation Yrotation Zrotation
                JOINT lShoulder
                {
                    OFFSET   0.117647   0.000000   0.000000
                    CHANNELS 3 Xrotation Yrotation Zrotation
                    JOINT lElbow
                    {
                        OFFSET   0.245000   0.000000   0.000000
                        CHANNELS 3 Xrotation Yrotation Zrotation
                        JOINT lWrist
                        {
                            OFFSET   0.240000   0.000000   0.000000
                            CHANNELS 3 Xrotation Yrotation Zrotation
                            End Site
                            {
                                OFFSET   0.116353  -0.002500   0.000000
                            }
                        }
                    }
                }
            }
        }
    }
    JOINT rHip
    {
        OFFSET  -0.100000  -0.051395   0.000000
        CHANNELS 3 Xrotation Yrotation Zrotation
        JOINT rKnee
        {
            OFFSET   0.000000  -0.410000   0.000000
            CHANNELS 3 Xrotation Yrotation Zrotation
            JOINT rAnkle
            {
                OFFSET   0.000000  -0.390000   0.000000
                CHANNELS 3 Xrotation Yrotation Zrotation
                JOINT rToeJoint
                {
                    OFFSET   0.000000  -0.050000   0.130000
                    CHANNELS 3 Xrotation Yrotation Zrotation
                    End Site
                    {
                        OFFSET  -0.010000   0.002000   0.060000
                    }
                }
            }
        }
    }
    JOINT lHip
    {
        OFFSET   0.100000  -0.051395   0.000000
        CHANNELS 3 Xrotation Yrotation Zrotation
        JOINT lKnee
        {
            OFFSET   0.000000  -0.410000   0.000000
            CHANNELS 3 Xrotation Yrotation Zrotation
            JOINT lAnkle
            {
                OFFSET   0.000000  -0.390000   0.000000
                CHANNELS 3 Xrotation Yrotation Zrotation
                JOINT lToeJoint
                {
                    OFFSET   0.000000  -0.050000   0.130000
                    CHANNELS 3 Xrotation Yrotation Zrotation
                    End Site
                    {
                        OFFSET   0.010000   0.002000   0.060000
                    }
                }
            }
        }
    }
}
MOTION
Frames: 11
Frame Time:   0.008333
 -2.318852   1.151390   4.267173   5.384141   6.102706  -3.778205  -1.566665   1.145437   6.116986  -9.736596  -4.609453  -1.319808   0.153687  -2.035686  -5.386886 -12.230304  34.228245 -25.604254 -71.546712  30.429324  11.931945   0.017874  28.816730  -0.006952  -1.901140  -1.752758 -19.220749 -12.300184 -25.039461  24.283752 -66.482621 -31.215639  -7.472282   0.002896 -32.379769  -0.000539  -7.913195 -11.652337  19.024324 -13.270062 -17.941128  -5.109193  30.351942   0.000572   0.010078  28.984489  -7.086989  22.213832   7.107044  -0.012128  -0.004430 -10.784140   5.285807   6.499331  19.101289  -0.006438  -0.017106  27.912205   4.135856 -17.261237   3.036077   0.084899  -0.003277
 -2.318180   1.158514   4.273307   5.006382   6.218487  -3.219055  -1.560549   1.189684   5.539024  -9.788169  -4.717444  -1.548992   0.304291  -2.213465  -5.323684 -12.462136  33.922914 -25.471478 -71.450548  30.491229  11.796714   0.014554  28.764955  -0.005497  -1.861541  -1.764116 -19.612516 -12.479574 -24.902699  24.093516 -66.242040 -31.192940  -7.403824   0.000529 -32.743350  -0.000646  -7.941880 -11.358750  19.283908 -13.150014 -17.714874  -5.513172  29.561948   0.000741   0.006331  29.037167  -6.745773  21.786642   6.894367  -0.010622  -0.005072 -10.530673   5.895084   6.133796  18.582823  -0.005295  -0.016606  28.277537   3.878880 -17.564038   2.630697   0.065521  -0.002682
 -2.317508   1.164956   4.279172   4.615164   6.351496  -2.721766  -1.524959   1.230956   5.014761  -9.813952  -4.819925  -1.741412   0.432215  -2.374972  -5.264103 -12.646742  33.651587 -25.367216 -71.353448  30.558927  11.692076   0.011819  28.721662  -0.004352  -1.806257  -1.741813 -19.934654 -12.592720 -24.810411  23.950312 -66.007284 -31.203023  -7.378789  -0.000817 -33.102704  -0.000533  -7.937730 -11.162534  19.445034 -13.042081 -17.499655  -5.862652  28.807881   0.000908   0.003290  29.078726  -6.428638  21.386989   6.639074  -0.009555  -0.005892 -10.325265   6.460641   5.826998  18.086816  -0.004385  -0.016041  28.622016   3.637598 -17.844871   2.281872   0.050410  -0.002278
 -2.316798   1.170709   4.284799   4.205848   6.493647  -2.261657  -1.460282   1.269684   4.532915  -9.807618  -4.921778  -1.909740   0.546757  -2.527544  -5.211856 -12.794476  33.414797 -25.282389 -71.259172  30.632045  11.609404   0.009577  28.684867  -0.003448  -1.746882  -1.701825 -20.210093 -12.665048 -24.749658  23.841272 -65.783567 -31.232426  -7.379142  -0.001487 -33.446242  -0.000333  -7.919835 -11.016085  19.531490 -12.952075 -17.298160  -6.190660  28.100166   0.001054   0.000973  29.118859  -6.132987  21.013883   6.401760  -0.008565  -0.006377 -10.151076   6.984873   5.547627  17.613578  -0.003683  -0.015367  28.941777   3.411121 -18.105612   1.960750   0.038539  -0.001954
 -2.316045   1.175770   4.290222   3.780857   6.640138  -1.832557  -1.370155   1.305747   4.090811  -9.772325  -5.021776  -2.057912   0.652069  -2.670736  -5.164982 -12.913682  33.205788 -25.212596 -71.168681  30.706788  11.544816   0.007750  28.652863  -0.002733  -1.686096  -1.652205 -20.447079 -12.709898 -24.710854  23.756632 -65.571725 -31.273561  -7.395559  -0.001730 -33.771951  -0.000100  -7.895349 -10.897986  19.568008 -12.879526 -17.108925  -6.502692  27.436210   0.001174  -0.000742  29.157760  -5.857473  20.665489   6.183207  -0.007643  -0.006587 -10.003407   7.471636   5.288625  17.163979  -0.003147  -0.014599  29.238622   3.198422 -18.347868   1.664711   0.029238  -0.001672
 -2.315250   1.180138   4.295477   3.343200   6.788371  -1.431402  -1.258766   1.339478   3.685852  -9.712413  -5.118763  -2.187818   0.750450  -2.803713  -5.121378 -13.011388  33.018750 -25.154471 -71.082697  30.780049  11.494902   0.006265  28.624196  -0.002166  -1.625820  -1.598990 -20.650860 -12.735421 -24.687577  23.689665 -65.371755 -31.321550  -7.422435  -0.001716 -34.079338   0.000136  -7.867478 -10.798204  19.570177 -12.822735 -16.931022  -6.800035  26.812917   0.001268  -0.001977  29.195300  -5.600760  20.340141   5.981897  -0.006793  -0.006592  -9.879005   7.923986   5.047112  16.737688  -0.002742  -0.013765  29.514294   2.998688 -18.573029   1.392005   0.021974  -0.001415
 -2.314415   1.183810   4.300592   2.895636   6.937050  -1.055879  -1.130268   1.371121   3.315358  -9.632237  -5.212069  -2.301016   0.843315  -2.926186  -5.079654 -13.093079  32.849285 -25.105409 -71.001660  30.849835  11.456662   0.005064  28.597843  -0.001717  -1.567455  -1.546405 -20.826441 -12.746976 -24.675406  23.635686 -65.183324 -31.373134  -7.456151  -0.001557 -34.368542   0.000356  -7.837993 -10.711015  19.547888 -12.779685 -16.763751  -7.083166  26.227684   0.001337  -0.002836  29.231383  -5.361576  20.036299   5.796406  -0.006016  -0.006450  -9.774990   8.344593   4.821277  16.333983  -0.002436  -0.012894  29.770381   2.811178 -18.782358   1.140914   0.016321  -0.001180
 -2.313748   1.186783   4.305527   2.544360   7.057526  -0.828938  -1.097655   1.404512   3.021723  -9.577072  -5.217665  -2.328801   0.959920  -2.967645  -5.045556 -13.139017  32.568084 -25.155268 -70.470612  30.853685  11.336667   0.004085  28.640300  -0.001575  -1.461219  -1.500950 -21.090242 -12.713148 -24.704745  23.658412 -64.713169 -31.433819  -7.462215  -0.000628 -34.672164   0.001552  -7.776979 -10.547321  19.647280 -12.835954 -16.627255  -7.201726  25.650319   0.001612  -0.003433  29.047939  -5.141800  19.555743   5.516384  -0.005971  -0.007080  -9.876141   8.712489   4.783942  16.065839  -0.002011  -0.011481  30.489716   2.450773 -18.908068   0.623377   0.011205  -0.001017
 -2.313084   1.189051   4.310328   2.173365   7.156496  -0.633800  -1.041925   1.450898   2.752316  -9.496214  -5.211287  -2.331247   1.065536  -2.978533  -5.001762 -13.163363  32.296399 -25.219352 -69.971939  30.843884  11.254816   0.003312  28.675936  -0.001419  -1.347804  -1.457540 -21.225424 -12.644445 -24.751955  23.712838 -64.263163 -31.512851  -7.490543   0.000294 -34.963002   0.002519  -7.706128 -10.406391  19.640680 -12.906382 -16.504140  -7.299774  25.102594   0.001851  -0.003691  28.874801  -4.935133  19.108198   5.238674  -0.005777  -0.007481  -9.985603   9.047645   4.788914  15.825229  -0.001643  -0.010137  31.166720   2.111827 -19.020706   0.185839   0.007551  -0.000823
 -2.312390   1.190615   4.315015   1.784609   7.245558  -0.453203  -0.964309   1.497416   2.505542  -9.393503  -5.205255  -2.322913   1.164243  -2.985370  -4.958623 -13.170472  32.050827 -25.287341 -69.504108  30.833324  11.190970   0.002696  28.708231  -0.001271  -1.241419  -1.422364 -21.310448 -12.560736 -24.810374  23.780528 -63.839422 -31.599759  -7.529454   0.001080 -35.239036   0.003201  -7.631782 -10.288452  19.579332 -12.990529 -16.388487  -7.398843  24.585405   0.002009  -0.003746  28.714172  -4.741155  18.691282   4.982036  -0.005448  -0.007585 -10.096211   9.357027   4.809664  15.598886  -0.001348  -0.008943  31.797902   1.794281 -19.122128  -0.213992   0.004831  -0.000618
 -2.311659   1.191477   4.319616   1.382083   7.329191  -0.283010  -0.868991   1.540288   2.280689  -9.274447  -5.202087  -2.307962   1.257434  -2.992295  -4.917452 -13.164139  31.829529 -25.356814 -69.065055  30.823558  11.140041   0.002205  28.738252  -0.001135  -1.140746  -1.391507 -21.369256 -12.469588 -24.874845  23.853830 -63.441663 -31.689026  -7.573993   0.001699 -35.499440   0.003635  -7.556667 -10.186462  19.490041 -13.086055 -16.278190  -7.501785  24.096892   0.002092  -0.003678  28.565166  -4.559337  18.302715   4.745396  -0.005049  -0.007474 -10.207616   9.643889   4.838867  15.384445  -0.001115  -0.007896  32.386145   1.496836 -19.213657  -0.581163   0.002808  -0.000416
